<?xml version="1.0" encoding="iso-8859-1"?>
<!-- Uploaded to: SVG Repo, www.svgrepo.com, Generator: SVG Repo Mixer Tools -->
<!DOCTYPE svg PUBLIC "-//W3C//DTD SVG 1.1//EN" "http://www.w3.org/Graphics/SVG/1.1/DTD/svg11.dtd">
<svg height="800px" width="800px" version="1.1" id="Capa_1" xmlns="http://www.w3.org/2000/svg" xmlns:xlink="http://www.w3.org/1999/xlink" 
	 viewBox="0 0 480.088 480.088" xml:space="preserve">
<g>
	<path style="fill:#020202;" d="M262.866,267.543c12.069,12.068,33.066,12.052,45.103,0.017c3.615-3.622,6.117-8.007,7.654-12.732
		l-60.329,0.27C256.831,259.717,259.318,263.994,262.866,267.543z"/>
	<path style="fill:#020202;" d="M60.296,288.254h117.876c-4.187-10.4-6.853-21.415-7.867-32.788l-108.832,0.481L60.296,73.852
		l268.868-1.186v65.25c12.216,4.987,23.482,12.191,33.491,21.219v-86.47c0-17.817-14.49-32.306-32.315-32.306H60.296
		c-17.826,0-32.315,14.489-32.315,32.306v183.281C27.98,273.766,42.47,288.254,60.296,288.254z"/>
	<path style="fill:#020202;" d="M181.703,295.941H10.549C4.726,295.941,0,300.658,0,306.481c0,15.257,12.363,27.621,27.621,27.621
		h184.14c-2.779-2.314-5.494-4.751-8.095-7.352C194.541,317.625,187.231,307.193,181.703,295.941z"/>
	<path style="fill:#020202;" d="M386.94,396.334l49.813-49.82l-24.825-24.833l-4.563-4.563c-6.182-6.181-16.189-6.181-22.372,0
		l-0.196,0.197l-23.369-23.368c3.205-4.956,5.904-10.174,8.064-15.628c4.153-10.48,6.442-21.716,6.442-33.328
		c0-24.186-9.42-46.911-26.526-63.999c-17.089-17.098-39.819-26.517-63.989-26.517c-24.188,0-46.902,9.419-63.991,26.509
		c-17.107,17.097-26.509,39.822-26.509,64.008c0,24.179,9.402,46.911,26.509,64c17.089,17.098,39.82,26.51,63.991,26.51
		c11.61,0,22.845-2.29,33.328-6.444c5.445-2.159,10.679-4.849,15.634-8.054l23.352,23.361l-0.18,0.188
		c-2.978,2.969-4.646,7-4.646,11.194c0,4.195,1.668,8.226,4.629,11.193l4.564,4.555L386.94,396.334z M335.852,271.074
		c-2.666,5.145-5.904,10.026-10.123,14.244c-4.039,4.039-8.766,7.074-13.72,9.592c-21.456,10.924-49.389,7.891-66.903-9.601
		c-10.775-10.767-16.696-25.093-16.696-40.319c0-15.233,5.921-29.55,16.696-40.319c10.762-10.77,25.087-16.706,40.313-16.706
		c15.224,0,29.533,5.936,40.31,16.714c10.776,10.761,16.713,25.078,16.713,40.311C342.441,254.263,340.005,263.071,335.852,271.074z
		"/>
	<polygon style="fill:#020202;" points="448.593,358.353 398.779,408.174 408.984,418.387 458.797,368.549 	"/>
	<path style="fill:#020202;" d="M470.555,380.471l-49.648,49.675c6.524,6.091,15.061,9.582,24.007,9.582
		c9.338,0,18.283-3.712,24.906-10.335C483.295,415.917,483.475,394.281,470.555,380.471z"/>
</g>
</svg>